<mxfile host="app.diagrams.net" modified="2023-11-27T20:37:38.856Z" agent="Mozilla/5.0 (Windows NT 10.0; Win64; x64) AppleWebKit/537.36 (KHTML, like Gecko) Chrome/119.0.0.0 Safari/537.36" etag="3im44P1wF5wR6tnQZmlH" version="22.1.4" type="github">
  <diagram name="Сторінка-1" id="bggpiZNv28QPv6gEW9ye">
    <mxGraphModel dx="1138" dy="623" grid="0" gridSize="10" guides="1" tooltips="1" connect="1" arrows="1" fold="1" page="1" pageScale="1" pageWidth="827" pageHeight="1169" math="0" shadow="0">
      <root>
        <mxCell id="0" />
        <mxCell id="1" parent="0" />
        <mxCell id="EFaJ55R3SgYhCWywvRlx-19" value="" style="group" vertex="1" connectable="0" parent="1">
          <mxGeometry x="470" y="20" width="310" height="370" as="geometry" />
        </mxCell>
        <mxCell id="EFaJ55R3SgYhCWywvRlx-1" value="&lt;b&gt;Start gcd(a, b)&lt;br&gt;&lt;/b&gt;" style="ellipse;whiteSpace=wrap;html=1;fillColor=#fff2cc;strokeColor=#d6b656;" vertex="1" parent="EFaJ55R3SgYhCWywvRlx-19">
          <mxGeometry x="92.16216216216216" width="108.91891891891892" height="42.04545454545455" as="geometry" />
        </mxCell>
        <mxCell id="EFaJ55R3SgYhCWywvRlx-2" value="a!=0 and b!=0?" style="rhombus;whiteSpace=wrap;html=1;fillColor=#ffe6cc;strokeColor=#d79b00;" vertex="1" parent="EFaJ55R3SgYhCWywvRlx-19">
          <mxGeometry x="100.54054054054053" y="67.27272727272728" width="92.16216216216216" height="58.86363636363637" as="geometry" />
        </mxCell>
        <mxCell id="EFaJ55R3SgYhCWywvRlx-8" style="edgeStyle=orthogonalEdgeStyle;rounded=0;orthogonalLoop=1;jettySize=auto;html=1;exitX=0.5;exitY=1;exitDx=0;exitDy=0;entryX=0.5;entryY=0;entryDx=0;entryDy=0;" edge="1" parent="EFaJ55R3SgYhCWywvRlx-19" source="EFaJ55R3SgYhCWywvRlx-1" target="EFaJ55R3SgYhCWywvRlx-2">
          <mxGeometry relative="1" as="geometry" />
        </mxCell>
        <mxCell id="EFaJ55R3SgYhCWywvRlx-4" value="a&amp;gt;b?" style="rhombus;whiteSpace=wrap;html=1;fillColor=#ffe6cc;strokeColor=#d79b00;" vertex="1" parent="EFaJ55R3SgYhCWywvRlx-19">
          <mxGeometry x="100.54054054054053" y="142.95454545454547" width="92.16216216216216" height="58.86363636363637" as="geometry" />
        </mxCell>
        <mxCell id="EFaJ55R3SgYhCWywvRlx-10" style="edgeStyle=orthogonalEdgeStyle;rounded=0;orthogonalLoop=1;jettySize=auto;html=1;exitX=0.5;exitY=1;exitDx=0;exitDy=0;entryX=0.5;entryY=0;entryDx=0;entryDy=0;" edge="1" parent="EFaJ55R3SgYhCWywvRlx-19" source="EFaJ55R3SgYhCWywvRlx-2" target="EFaJ55R3SgYhCWywvRlx-4">
          <mxGeometry relative="1" as="geometry" />
        </mxCell>
        <mxCell id="EFaJ55R3SgYhCWywvRlx-5" value="a=a%b" style="rounded=0;whiteSpace=wrap;html=1;fillColor=#d5e8d4;strokeColor=#82b366;" vertex="1" parent="EFaJ55R3SgYhCWywvRlx-19">
          <mxGeometry x="25.135135135135133" y="218.63636363636365" width="92.16216216216216" height="42.04545454545455" as="geometry" />
        </mxCell>
        <mxCell id="EFaJ55R3SgYhCWywvRlx-12" style="edgeStyle=orthogonalEdgeStyle;rounded=0;orthogonalLoop=1;jettySize=auto;html=1;exitX=0;exitY=0.5;exitDx=0;exitDy=0;entryX=0.5;entryY=0;entryDx=0;entryDy=0;" edge="1" parent="EFaJ55R3SgYhCWywvRlx-19" source="EFaJ55R3SgYhCWywvRlx-4" target="EFaJ55R3SgYhCWywvRlx-5">
          <mxGeometry relative="1" as="geometry" />
        </mxCell>
        <mxCell id="EFaJ55R3SgYhCWywvRlx-6" value="b=b%a" style="rounded=0;whiteSpace=wrap;html=1;fillColor=#d5e8d4;strokeColor=#82b366;" vertex="1" parent="EFaJ55R3SgYhCWywvRlx-19">
          <mxGeometry x="175.94594594594594" y="218.63636363636365" width="92.16216216216216" height="42.04545454545455" as="geometry" />
        </mxCell>
        <mxCell id="EFaJ55R3SgYhCWywvRlx-11" style="edgeStyle=orthogonalEdgeStyle;rounded=0;orthogonalLoop=1;jettySize=auto;html=1;exitX=1;exitY=0.5;exitDx=0;exitDy=0;entryX=0.5;entryY=0;entryDx=0;entryDy=0;" edge="1" parent="EFaJ55R3SgYhCWywvRlx-19" source="EFaJ55R3SgYhCWywvRlx-4" target="EFaJ55R3SgYhCWywvRlx-6">
          <mxGeometry relative="1" as="geometry" />
        </mxCell>
        <mxCell id="EFaJ55R3SgYhCWywvRlx-7" value="&lt;b&gt;Return a+b&lt;br&gt;&lt;/b&gt;" style="ellipse;whiteSpace=wrap;html=1;fillColor=#fff2cc;strokeColor=#d6b656;" vertex="1" parent="EFaJ55R3SgYhCWywvRlx-19">
          <mxGeometry x="92.16216216216216" y="327.95454545454544" width="108.91891891891892" height="42.04545454545455" as="geometry" />
        </mxCell>
        <mxCell id="EFaJ55R3SgYhCWywvRlx-9" style="edgeStyle=orthogonalEdgeStyle;rounded=0;orthogonalLoop=1;jettySize=auto;html=1;exitX=1;exitY=0.5;exitDx=0;exitDy=0;" edge="1" parent="EFaJ55R3SgYhCWywvRlx-19" source="EFaJ55R3SgYhCWywvRlx-2" target="EFaJ55R3SgYhCWywvRlx-7">
          <mxGeometry relative="1" as="geometry">
            <Array as="points">
              <mxPoint x="310" y="96.70454545454545" />
              <mxPoint x="310" y="306.9318181818182" />
            </Array>
          </mxGeometry>
        </mxCell>
        <mxCell id="EFaJ55R3SgYhCWywvRlx-16" value="" style="endArrow=none;html=1;rounded=0;entryX=0.5;entryY=1;entryDx=0;entryDy=0;exitX=0.5;exitY=1;exitDx=0;exitDy=0;" edge="1" parent="EFaJ55R3SgYhCWywvRlx-19" source="EFaJ55R3SgYhCWywvRlx-5" target="EFaJ55R3SgYhCWywvRlx-6">
          <mxGeometry width="50" height="50" relative="1" as="geometry">
            <mxPoint x="16.756756756756758" y="210.22727272727275" as="sourcePoint" />
            <mxPoint x="58.648648648648646" y="168.1818181818182" as="targetPoint" />
            <Array as="points">
              <mxPoint x="71.21621621621621" y="277.5" />
              <mxPoint x="222.02702702702703" y="277.5" />
            </Array>
          </mxGeometry>
        </mxCell>
        <mxCell id="EFaJ55R3SgYhCWywvRlx-18" value="" style="endArrow=classic;html=1;rounded=0;" edge="1" parent="EFaJ55R3SgYhCWywvRlx-19">
          <mxGeometry width="50" height="50" relative="1" as="geometry">
            <mxPoint x="150.8108108108108" y="277.5" as="sourcePoint" />
            <mxPoint x="150.8108108108108" y="50.45454545454545" as="targetPoint" />
            <Array as="points">
              <mxPoint x="150.8108108108108" y="294.3181818181818" />
              <mxPoint y="294.3181818181818" />
              <mxPoint y="50.45454545454545" />
            </Array>
          </mxGeometry>
        </mxCell>
        <mxCell id="EFaJ55R3SgYhCWywvRlx-49" value="NO" style="text;html=1;strokeColor=none;fillColor=none;align=center;verticalAlign=middle;whiteSpace=wrap;rounded=0;" vertex="1" parent="EFaJ55R3SgYhCWywvRlx-19">
          <mxGeometry x="220" y="70" width="60" height="30" as="geometry" />
        </mxCell>
        <mxCell id="EFaJ55R3SgYhCWywvRlx-56" value="NO" style="text;html=1;strokeColor=none;fillColor=none;align=center;verticalAlign=middle;whiteSpace=wrap;rounded=0;" vertex="1" parent="EFaJ55R3SgYhCWywvRlx-19">
          <mxGeometry x="175.95000000000005" y="150" width="60" height="30" as="geometry" />
        </mxCell>
        <mxCell id="EFaJ55R3SgYhCWywvRlx-57" value="YES" style="text;html=1;strokeColor=none;fillColor=none;align=center;verticalAlign=middle;whiteSpace=wrap;rounded=0;" vertex="1" parent="EFaJ55R3SgYhCWywvRlx-19">
          <mxGeometry x="92.15999999999997" y="120" width="60" height="30" as="geometry" />
        </mxCell>
        <mxCell id="EFaJ55R3SgYhCWywvRlx-58" value="YES" style="text;html=1;strokeColor=none;fillColor=none;align=center;verticalAlign=middle;whiteSpace=wrap;rounded=0;" vertex="1" parent="EFaJ55R3SgYhCWywvRlx-19">
          <mxGeometry x="25.139999999999986" y="180" width="60" height="30" as="geometry" />
        </mxCell>
        <mxCell id="EFaJ55R3SgYhCWywvRlx-61" style="edgeStyle=orthogonalEdgeStyle;rounded=0;orthogonalLoop=1;jettySize=auto;html=1;exitX=0.5;exitY=1;exitDx=0;exitDy=0;entryX=0.5;entryY=0;entryDx=0;entryDy=0;" edge="1" parent="1" source="EFaJ55R3SgYhCWywvRlx-59" target="EFaJ55R3SgYhCWywvRlx-60">
          <mxGeometry relative="1" as="geometry" />
        </mxCell>
        <mxCell id="EFaJ55R3SgYhCWywvRlx-59" value="&lt;b style=&quot;font-size: 11px;&quot;&gt;Start&amp;nbsp;&lt;br&gt;&lt;/b&gt;" style="ellipse;whiteSpace=wrap;html=1;fillColor=#fff2cc;strokeColor=#d6b656;" vertex="1" parent="1">
          <mxGeometry x="365.54" y="400" width="108.92" height="50" as="geometry" />
        </mxCell>
        <mxCell id="EFaJ55R3SgYhCWywvRlx-63" style="edgeStyle=orthogonalEdgeStyle;rounded=0;orthogonalLoop=1;jettySize=auto;html=1;exitX=0.5;exitY=1;exitDx=0;exitDy=0;entryX=0.5;entryY=0;entryDx=0;entryDy=0;" edge="1" parent="1" source="EFaJ55R3SgYhCWywvRlx-60" target="EFaJ55R3SgYhCWywvRlx-62">
          <mxGeometry relative="1" as="geometry" />
        </mxCell>
        <mxCell id="EFaJ55R3SgYhCWywvRlx-60" value="&lt;b style=&quot;border-color: var(--border-color); font-size: 11px;&quot;&gt;&amp;nbsp;transition(a) or&lt;/b&gt;&lt;b style=&quot;border-color: var(--border-color); font-size: 11px;&quot;&gt;&amp;nbsp;transition(a, b)&lt;/b&gt;" style="shape=process;whiteSpace=wrap;html=1;backgroundOutline=1;fillColor=#e1d5e7;strokeColor=#9673a6;" vertex="1" parent="1">
          <mxGeometry x="360.00000000000006" y="462.04999999999995" width="120" height="60" as="geometry" />
        </mxCell>
        <mxCell id="EFaJ55R3SgYhCWywvRlx-62" value="&lt;b style=&quot;font-size: 11px;&quot;&gt;Finish&lt;br&gt;&lt;/b&gt;" style="ellipse;whiteSpace=wrap;html=1;fillColor=#fff2cc;strokeColor=#d6b656;" vertex="1" parent="1">
          <mxGeometry x="365.54" y="540" width="108.92" height="50" as="geometry" />
        </mxCell>
        <mxCell id="EFaJ55R3SgYhCWywvRlx-64" value="" style="group" vertex="1" connectable="0" parent="1">
          <mxGeometry x="320" y="60" width="108.9189189189189" height="102.04545454545456" as="geometry" />
        </mxCell>
        <mxCell id="EFaJ55R3SgYhCWywvRlx-20" value="&lt;b style=&quot;font-size: 11px;&quot;&gt;Start transition(a, b)&lt;br&gt;&lt;/b&gt;" style="ellipse;whiteSpace=wrap;html=1;fillColor=#fff2cc;strokeColor=#d6b656;" vertex="1" parent="EFaJ55R3SgYhCWywvRlx-64">
          <mxGeometry width="108.91891891891892" height="42.04545454545455" as="geometry" />
        </mxCell>
        <mxCell id="EFaJ55R3SgYhCWywvRlx-21" value="&lt;b style=&quot;font-size: 11px;&quot;&gt;Return a/b&lt;br&gt;&lt;/b&gt;" style="ellipse;whiteSpace=wrap;html=1;fillColor=#fff2cc;strokeColor=#d6b656;" vertex="1" parent="EFaJ55R3SgYhCWywvRlx-64">
          <mxGeometry y="60" width="108.91891891891892" height="42.04545454545455" as="geometry" />
        </mxCell>
        <mxCell id="EFaJ55R3SgYhCWywvRlx-22" style="edgeStyle=orthogonalEdgeStyle;rounded=0;orthogonalLoop=1;jettySize=auto;html=1;exitX=0.5;exitY=1;exitDx=0;exitDy=0;entryX=0.5;entryY=0;entryDx=0;entryDy=0;" edge="1" parent="EFaJ55R3SgYhCWywvRlx-64" source="EFaJ55R3SgYhCWywvRlx-20" target="EFaJ55R3SgYhCWywvRlx-21">
          <mxGeometry relative="1" as="geometry" />
        </mxCell>
        <mxCell id="EFaJ55R3SgYhCWywvRlx-65" value="" style="group" vertex="1" connectable="0" parent="1">
          <mxGeometry x="80" y="40" width="167.77" height="455" as="geometry" />
        </mxCell>
        <mxCell id="EFaJ55R3SgYhCWywvRlx-23" value="&lt;b style=&quot;font-size: 11px;&quot;&gt;Start transition(a)&lt;br&gt;&lt;/b&gt;" style="ellipse;whiteSpace=wrap;html=1;fillColor=#fff2cc;strokeColor=#d6b656;" vertex="1" parent="EFaJ55R3SgYhCWywvRlx-65">
          <mxGeometry x="51.620000000000005" width="108.91891891891892" height="42.04545454545455" as="geometry" />
        </mxCell>
        <mxCell id="EFaJ55R3SgYhCWywvRlx-24" value="&lt;font style=&quot;font-size: 11px;&quot;&gt;fmod(a, 10)!=0?&lt;/font&gt;" style="rhombus;whiteSpace=wrap;html=1;fillColor=#ffe6cc;strokeColor=#d79b00;" vertex="1" parent="EFaJ55R3SgYhCWywvRlx-65">
          <mxGeometry x="60" y="60" width="92.16216216216216" height="58.86363636363637" as="geometry" />
        </mxCell>
        <mxCell id="EFaJ55R3SgYhCWywvRlx-44" style="edgeStyle=orthogonalEdgeStyle;rounded=0;orthogonalLoop=1;jettySize=auto;html=1;exitX=0.5;exitY=1;exitDx=0;exitDy=0;entryX=0.5;entryY=0;entryDx=0;entryDy=0;" edge="1" parent="EFaJ55R3SgYhCWywvRlx-65" source="EFaJ55R3SgYhCWywvRlx-23" target="EFaJ55R3SgYhCWywvRlx-24">
          <mxGeometry relative="1" as="geometry" />
        </mxCell>
        <mxCell id="EFaJ55R3SgYhCWywvRlx-41" style="edgeStyle=orthogonalEdgeStyle;rounded=0;orthogonalLoop=1;jettySize=auto;html=1;exitX=1;exitY=0.5;exitDx=0;exitDy=0;entryX=1;entryY=0.5;entryDx=0;entryDy=0;" edge="1" parent="EFaJ55R3SgYhCWywvRlx-65" source="EFaJ55R3SgYhCWywvRlx-39" target="EFaJ55R3SgYhCWywvRlx-24">
          <mxGeometry relative="1" as="geometry" />
        </mxCell>
        <mxCell id="EFaJ55R3SgYhCWywvRlx-39" value="a=a*10;&lt;br&gt;n++" style="rounded=0;whiteSpace=wrap;html=1;fillColor=#d5e8d4;strokeColor=#82b366;" vertex="1" parent="EFaJ55R3SgYhCWywvRlx-65">
          <mxGeometry x="60.00000000000001" y="140" width="92.16216216216216" height="42.04545454545455" as="geometry" />
        </mxCell>
        <mxCell id="EFaJ55R3SgYhCWywvRlx-40" style="edgeStyle=orthogonalEdgeStyle;rounded=0;orthogonalLoop=1;jettySize=auto;html=1;exitX=0.5;exitY=1;exitDx=0;exitDy=0;entryX=0.5;entryY=0;entryDx=0;entryDy=0;" edge="1" parent="EFaJ55R3SgYhCWywvRlx-65" source="EFaJ55R3SgYhCWywvRlx-24" target="EFaJ55R3SgYhCWywvRlx-39">
          <mxGeometry relative="1" as="geometry" />
        </mxCell>
        <mxCell id="EFaJ55R3SgYhCWywvRlx-42" value="k=pow(10, n)" style="rounded=0;whiteSpace=wrap;html=1;fillColor=#d5e8d4;strokeColor=#82b366;" vertex="1" parent="EFaJ55R3SgYhCWywvRlx-65">
          <mxGeometry x="60.00000000000001" y="207.95" width="92.16216216216216" height="42.04545454545455" as="geometry" />
        </mxCell>
        <mxCell id="EFaJ55R3SgYhCWywvRlx-43" style="edgeStyle=orthogonalEdgeStyle;rounded=0;orthogonalLoop=1;jettySize=auto;html=1;entryX=0;entryY=0.5;entryDx=0;entryDy=0;" edge="1" parent="EFaJ55R3SgYhCWywvRlx-65" source="EFaJ55R3SgYhCWywvRlx-24" target="EFaJ55R3SgYhCWywvRlx-42">
          <mxGeometry relative="1" as="geometry">
            <Array as="points">
              <mxPoint x="39.620000000000005" y="90" />
              <mxPoint x="39.620000000000005" y="229" />
            </Array>
          </mxGeometry>
        </mxCell>
        <mxCell id="EFaJ55R3SgYhCWywvRlx-45" value="&lt;b&gt;return to_string(l) + &quot;/&quot; + to_string(j)&lt;/b&gt;" style="ellipse;whiteSpace=wrap;html=1;fillColor=#fff2cc;strokeColor=#d6b656;" vertex="1" parent="EFaJ55R3SgYhCWywvRlx-65">
          <mxGeometry x="37.77000000000001" y="395" width="130" height="60" as="geometry" />
        </mxCell>
        <mxCell id="EFaJ55R3SgYhCWywvRlx-47" value="YES" style="text;html=1;strokeColor=none;fillColor=none;align=center;verticalAlign=middle;whiteSpace=wrap;rounded=0;" vertex="1" parent="EFaJ55R3SgYhCWywvRlx-65">
          <mxGeometry x="92.16000000000003" y="110" width="60" height="30" as="geometry" />
        </mxCell>
        <mxCell id="EFaJ55R3SgYhCWywvRlx-48" value="NO" style="text;html=1;strokeColor=none;fillColor=none;align=center;verticalAlign=middle;whiteSpace=wrap;rounded=0;" vertex="1" parent="EFaJ55R3SgYhCWywvRlx-65">
          <mxGeometry y="130" width="60" height="30" as="geometry" />
        </mxCell>
        <mxCell id="EFaJ55R3SgYhCWywvRlx-50" value="f=gcd(a, k)" style="shape=process;whiteSpace=wrap;html=1;backgroundOutline=1;fillColor=#e1d5e7;strokeColor=#9673a6;" vertex="1" parent="EFaJ55R3SgYhCWywvRlx-65">
          <mxGeometry x="45.00000000000001" y="270" width="115.54" height="50" as="geometry" />
        </mxCell>
        <mxCell id="EFaJ55R3SgYhCWywvRlx-53" style="edgeStyle=orthogonalEdgeStyle;rounded=0;orthogonalLoop=1;jettySize=auto;html=1;exitX=0.5;exitY=1;exitDx=0;exitDy=0;entryX=0.5;entryY=0;entryDx=0;entryDy=0;" edge="1" parent="EFaJ55R3SgYhCWywvRlx-65" source="EFaJ55R3SgYhCWywvRlx-42" target="EFaJ55R3SgYhCWywvRlx-50">
          <mxGeometry relative="1" as="geometry" />
        </mxCell>
        <mxCell id="EFaJ55R3SgYhCWywvRlx-55" style="edgeStyle=orthogonalEdgeStyle;rounded=0;orthogonalLoop=1;jettySize=auto;html=1;exitX=0.5;exitY=1;exitDx=0;exitDy=0;entryX=0.5;entryY=0;entryDx=0;entryDy=0;" edge="1" parent="EFaJ55R3SgYhCWywvRlx-65" source="EFaJ55R3SgYhCWywvRlx-52" target="EFaJ55R3SgYhCWywvRlx-45">
          <mxGeometry relative="1" as="geometry" />
        </mxCell>
        <mxCell id="EFaJ55R3SgYhCWywvRlx-52" value="l=a/f; &lt;br&gt;j=k/f" style="rounded=0;whiteSpace=wrap;html=1;fillColor=#d5e8d4;strokeColor=#82b366;" vertex="1" parent="EFaJ55R3SgYhCWywvRlx-65">
          <mxGeometry x="60.00000000000001" y="340" width="92.16216216216216" height="42.04545454545455" as="geometry" />
        </mxCell>
        <mxCell id="EFaJ55R3SgYhCWywvRlx-54" style="edgeStyle=orthogonalEdgeStyle;rounded=0;orthogonalLoop=1;jettySize=auto;html=1;exitX=0.5;exitY=1;exitDx=0;exitDy=0;entryX=0.5;entryY=0;entryDx=0;entryDy=0;" edge="1" parent="EFaJ55R3SgYhCWywvRlx-65" source="EFaJ55R3SgYhCWywvRlx-50" target="EFaJ55R3SgYhCWywvRlx-52">
          <mxGeometry relative="1" as="geometry" />
        </mxCell>
      </root>
    </mxGraphModel>
  </diagram>
</mxfile>
